Coordinates
version=1
nRows=37
nColumns=34
inDegrees=no

Units are S.I. units (second, meters, Newtons, ...)
If the header above contains a line with 'inDegrees', this indicates whether rotational values are in degrees (yes) or radians (no).

endheader
time	pelvis_tilt	pelvis_list	pelvis_rotation	pelvis_tx	pelvis_ty	pelvis_tz	hip_flexion_r	hip_adduction_r	hip_rotation_r	knee_angle_r	ankle_angle_r	subtalar_angle_r	mtp_angle_r	hip_flexion_l	hip_adduction_l	hip_rotation_l	knee_angle_l	ankle_angle_l	subtalar_angle_l	mtp_angle_l	lumbar_extension	lumbar_bending	lumbar_rotation	arm_flex_r	arm_add_r	arm_rot_r	elbow_flex_r	pro_sup_r	arm_flex_l	arm_add_l	arm_rot_l	elbow_flex_l	pro_sup_l
0.86	0.124439	0.118281	-0.00765174	0.990653	0.935537	-0.258647	0.396926	-0.224141	-0.067854	0.994412	0.0674688	-0.142149	0.0006762	-0.122263	0.211541	0.0529269	0.0839129	0.173687	-0.0615787	0.000644512	-0.435827	-0.113687	-0.080508	0.00256996	-0.211829	-0.0134581	0.783242	2.18114	0.11446	-0.29131	-0.0410773	0.853988	2.12825
0.87	0.125259	0.114879	-0.00467644	1.00134	0.935641	-0.258651	0.400335	-0.215554	-0.0764282	0.937308	0.0838	-0.110102	0.000680104	-0.146816	0.207388	0.0641713	0.0659737	0.17625	-0.0618116	0.000648588	-0.437895	-0.109276	-0.0855303	-0.00790548	-0.213195	-0.0196222	0.779009	2.17865	0.119711	-0.297266	-0.0366822	0.873705	2.12902
0.88	0.126149	0.111497	-0.00195894	1.01208	0.935533	-0.258567	0.401078	-0.206749	-0.0856231	0.875665	0.098529	-0.0754346	0.000684007	-0.17106	0.202905	0.07463	0.0493338	0.179733	-0.0615869	0.000652663	-0.439823	-0.10509	-0.0901551	-0.018218	-0.214286	-0.0262863	0.774754	2.17591	0.124675	-0.303523	-0.0317948	0.893519	2.12951
0.89	0.127078	0.10823	0.000412339	1.02288	0.935205	-0.25839	0.399423	-0.197692	-0.0949018	0.810026	0.111802	-0.0383567	0.00068791	-0.194747	0.198229	0.083948	0.0344545	0.184293	-0.0606758	0.000656737	-0.441557	-0.101255	-0.0943213	-0.0283451	-0.215043	-0.0334705	0.7704	2.17307	0.12939	-0.310054	-0.026396	0.913216	2.12968
0.9	0.128	0.105158	0.00241355	1.03376	0.934655	-0.258122	0.395669	-0.188376	-0.103727	0.741019	0.123772	0.000740277	0.000691812	-0.217587	0.193505	0.0918733	0.0217784	0.190022	-0.0589572	0.000660811	-0.443032	-0.0978556	-0.0980112	-0.0382742	-0.215424	-0.0412013	0.765887	2.17028	0.133892	-0.316814	-0.0204842	0.932572	2.12956
0.91	0.128878	0.102335	0.00407337	1.04469	0.933888	-0.25777	0.3901	-0.178823	-0.111596	0.669355	0.134576	0.0412002	0.000695712	-0.239312	0.18886	0.098264	0.0116398	0.196944	-0.0564036	0.000664883	-0.444195	-0.0949178	-0.10124	-0.047995	-0.215405	-0.0494989	0.76117	2.16763	0.138216	-0.323736	-0.014076	0.951359	2.12918
0.92	0.129712	0.0997745	0.00545384	1.0557	0.932918	-0.257346	0.382946	-0.169073	-0.118073	0.595842	0.14432	0.082045	0.000699612	-0.259752	0.184382	0.103087	0.00416651	0.205014	-0.0530519	0.000668955	-0.445041	-0.0924068	-0.104038	-0.0574916	-0.214984	-0.0583691	0.756218	2.16518	0.142393	-0.330732	-0.00720963	0.969357	2.12861
0.93	0.130551	0.0974441	0.00662825	1.06679	0.931768	-0.256862	0.374363	-0.159168	-0.122822	0.521396	0.153067	0.121952	0.000703511	-0.278902	0.180096	0.106408	-0.000792588	0.21412	-0.0489725	0.000673026	-0.445618	-0.0902216	-0.106437	-0.066736	-0.214188	-0.0677972	0.751018	2.16297	0.146444	-0.337695	5.08121e-05	0.98637	2.12792
0.94	0.131476	0.0952655	0.00766072	1.07796	0.930469	-0.25633	0.364467	-0.149143	-0.125614	0.44708	0.16083	0.159267	0.000707409	-0.296939	0.175963	0.108376	-0.00365407	0.224077	-0.0442538	0.000677096	-0.44602	-0.0882092	-0.108449	-0.0756852	-0.213062	-0.0777418	0.745568	2.16102	0.150381	-0.344503	0.00760863	1.00223	2.12715
0.95	0.132575	0.0931277	0.00859355	1.08924	0.929054	-0.25576	0.353392	-0.13902	-0.126332	0.37414	0.167573	0.192087	0.000711307	-0.314199	0.171891	0.109198	-0.0050054	0.234639	-0.0389982	0.000681165	-0.446344	-0.0861867	-0.11007	-0.0842815	-0.211676	-0.088126	0.739881	2.15934	0.154197	-0.35102	0.0153278	1.01679	2.12635
0.96	0.133938	0.090887	0.00944297	1.10065	0.927552	-0.255161	0.34134	-0.128806	-0.124989	0.304019	0.173228	0.21844	0.000715203	-0.331123	0.167746	0.109104	-0.00548192	0.245518	-0.0333187	0.000685233	-0.446664	-0.083957	-0.111275	-0.092455	-0.210116	-0.098831	0.733988	2.15795	0.157865	-0.357107	0.0230285	1.02996	2.12556
0.97	0.135603	0.088378	0.0101954	1.11222	0.925994	-0.254537	0.328579	-0.118483	-0.121738	0.238325	0.177723	0.236551	0.000719099	-0.348181	0.163357	0.108297	-0.00564036	0.256412	-0.0273284	0.0006893	-0.447046	-0.0813098	-0.11203	-0.100128	-0.208483	-0.109694	0.727937	2.15685	0.161327	-0.36262	0.0304888	1.04168	2.12481
0.98	0.137584	0.0854237	0.0108296	1.12396	0.924418	-0.253892	0.315422	-0.108004	-0.116894	0.178748	0.181	0.245139	0.000722994	-0.36573	0.158539	0.10688	-0.0058559	0.267062	-0.021116	0.000693367	-0.447562	-0.078022	-0.112301	-0.107218	-0.206889	-0.120516	0.721797	2.15606	0.164499	-0.36742	0.0374554	1.05194	2.12413
0.99	0.139894	0.0818405	0.0113312	1.13588	0.922858	-0.253231	0.302199	-0.0972996	-0.110925	0.126924	0.183031	0.243678	0.000726888	-0.383909	0.153101	0.104798	-0.00624574	0.277296	-0.0147008	0.000697433	-0.448293	-0.0738685	-0.112068	-0.113644	-0.205451	-0.131073	0.715651	2.15558	0.167272	-0.371379	0.0436614	1.06076	2.12354
1	0.142543	0.0774537	0.0116993	1.14798	0.92135	-0.252559	0.289235	-0.0862813	-0.104411	0.0842559	0.183799	0.232556	0.000730782	-0.402584	0.146869	0.101804	-0.00662276	0.287058	-0.00798072	0.000701498	-0.449316	-0.0686372	-0.111329	-0.119333	-0.204275	-0.141139	0.709588	2.1554	0.169511	-0.374385	0.048851	1.06818	2.12305
1.01	0.145528	0.0721177	0.0119506	1.16023	0.919928	-0.251882	0.276824	-0.0748616	-0.0979693	0.0517234	0.183277	0.213087	0.000734676	-0.421345	0.139701	0.0974487	-0.0064851	0.296419	-0.000690607	0.000705563	-0.450688	-0.062152	-0.110108	-0.124232	-0.203447	-0.150515	0.703701	2.15551	0.171064	-0.376358	0.0528075	1.07426	2.12269
1.02	0.148818	0.0657377	0.0121161	1.17263	0.918619	-0.251204	0.265212	-0.062972	-0.0921641	0.0297228	0.181384	0.187373	0.000738569	-0.439541	0.131494	0.0911283	-0.00504848	0.305553	0.00760786	0.000709628	-0.452419	-0.054298	-0.108447	-0.128318	-0.203022	-0.159047	0.698073	2.15593	0.171772	-0.377251	0.0553825	1.07906	2.12245
1.03	0.152323	0.0582887	0.0122342	1.18513	0.917442	-0.250525	0.254588	-0.0505838	-0.0874207	0.0179812	0.17797	0.158032	0.000742462	-0.456379	0.122194	0.0821678	-0.00132757	0.31467	0.0174906	0.000713692	-0.454434	-0.0450441	-0.106398	-0.131605	-0.203012	-0.166645	0.692777	2.15664	0.171484	-0.377061	0.0565195	1.08263	2.12232
1.04	0.155858	0.049824	0.0123334	1.19774	0.916394	-0.249842	0.245102	-0.0377213	-0.0839794	0.0155927	0.172819	0.127843	0.000746354	-0.471086	0.111782	0.0699586	0.00573282	0.323925	0.0295823	0.000717756	-0.456557	-0.0344551	-0.104013	-0.134157	-0.203387	-0.173287	0.687877	2.15763	0.170064	-0.375826	0.0562689	1.08498	2.12226
1.05	0.159213	0.0404413	0.0124257	1.21047	0.915501	-0.249142	0.236877	-0.0244683	-0.0819031	0.0211788	0.16571	0.0993924	0.000750246	-0.483001	0.100267	0.0540952	0.0170803	0.33331	0.0444182	0.000721819	-0.458488	-0.0226946	-0.101327	-0.136083	-0.20408	-0.179016	0.683429	2.15886	0.167414	-0.373627	0.0547902	1.08613	2.12222
1.06	0.16212	0.0302925	0.0125022	1.22331	0.914746	-0.248411	0.229985	-0.0109412	-0.0811185	0.0330768	0.156506	0.0747416	0.000754138	-0.491659	0.087653	0.0344867	0.0333842	0.342573	0.0623015	0.000725882	-0.459878	-0.00998098	-0.0983466	-0.137529	-0.205	-0.183918	0.679484	2.16025	0.163488	-0.370571	0.05234	1.08601	2.12216
1.07	0.164335	0.0195236	0.0125398	1.23628	0.914115	-0.247638	0.224409	0.00275257	-0.0814421	0.0495057	0.145233	0.0551354	0.000758029	-0.496834	0.0738986	0.0113969	0.0549191	0.35119	0.0832251	0.000729945	-0.460393	0.0034635	-0.0950407	-0.138663	-0.206048	-0.188104	0.676096	2.1617	0.158299	-0.366781	0.049243	1.0846	2.12201
1.08	0.165681	0.00825035	0.0125107	1.24941	0.913596	-0.246811	0.220052	0.0165335	-0.0826559	0.0687764	0.132189	0.0409374	0.00076192	-0.498503	0.0589063	-0.0145867	0.0816246	0.358388	0.106851	0.000734007	-0.459773	0.0174485	-0.0913514	-0.139649	-0.207136	-0.191689	0.67332	2.16311	0.151927	-0.362376	0.0458512	1.0818	2.12173
1.09	0.16606	-0.0034491	0.0123905	1.26268	0.913178	-0.245921	0.21677	0.0303506	-0.0846085	0.0894976	0.118028	0.0317935	0.00076581	-0.496761	0.0425341	-0.0426322	0.113255	0.363212	0.132538	0.000738068	-0.457862	0.0318318	-0.0872103	-0.140619	-0.208199	-0.194761	0.671211	2.16439	0.144507	-0.357468	0.0424985	1.07757	2.12131
1.1	0.16546	-0.0155315	0.0121653	1.27609	0.912858	-0.244961	0.214402	0.0441762	-0.08728	0.110701	0.103765	0.0269083	0.0007697	-0.491737	0.0246141	-0.0717699	0.149543	0.36461	0.159402	0.000742129	-0.454628	0.0465231	-0.0825594	-0.141649	-0.209205	-0.197367	0.669813	2.16547	0.136217	-0.352152	0.0394554	1.07187	2.12078
1.11	0.163936	-0.0279833	0.011835	1.28962	0.912637	-0.243928	0.212792	0.058006	-0.0907683	0.131849	0.0906805	0.0253152	0.000773589	-0.483523	0.00497612	-0.100986	0.190308	0.361501	0.186365	0.00074619	-0.45015	0.0614801	-0.0773676	-0.142745	-0.210152	-0.199505	0.669166	2.16632	0.127256	-0.346504	0.036896	1.06471	2.12023
1.12	0.16159	-0.0408144	0.0114091	1.30323	0.912518	-0.242821	0.211779	0.0718667	-0.0952046	0.152729	0.0801124	0.0260667	0.000777478	-0.472131	-0.0165323	-0.129317	0.235508	0.352863	0.212225	0.000750249	-0.4446	0.0766976	-0.071636	-0.143841	-0.211069	-0.201127	0.669298	2.16696	0.117822	-0.340589	0.0348815	1.05614	2.11978
1.13	0.158539	-0.0540478	0.0108943	1.31687	0.912506	-0.241645	0.211196	0.0858234	-0.100634	0.173289	0.0732113	0.0283246	0.000781366	-0.457479	-0.0400206	-0.155927	0.285216	0.337818	0.235722	0.000754309	-0.438199	0.0921861	-0.0653918	-0.144805	-0.211998	-0.202153	0.670234	2.16742	0.108092	-0.334463	0.0333654	1.04629	2.11956
1.14	0.154873	-0.0676947	0.010272	1.3305	0.9126	-0.240401	0.210886	0.0999723	-0.106909	0.193479	0.0707162	0.0313694	0.000785254	-0.439378	-0.0655169	-0.180163	0.339547	0.315733	0.255601	0.000758368	-0.431164	0.107937	-0.0586711	-0.145457	-0.212985	-0.202486	0.671987	2.16773	0.0982176	-0.328188	0.0322198	1.03536	2.11974
1.15	0.150602	-0.0817086	0.00946571	1.34406	0.912792	-0.239089	0.21076	0.114402	-0.113633	0.213152	0.0728248	0.0345729	0.000789141	-0.417523	-0.0929095	-0.201574	0.398562	0.286327	0.270672	0.000762426	-0.423645	0.123873	-0.0514975	-0.145582	-0.214061	-0.202027	0.674555	2.1679	0.0883284	-0.321839	0.0312775	1.02356	2.12043
1.16	0.145595	-0.0959298	0.00831912	1.35749	0.913058	-0.237706	0.210874	0.129126	-0.120178	0.232065	0.0791936	0.0373823	0.000793028	-0.391494	-0.121872	-0.219903	0.462184	0.249781	0.279856	0.000766484	-0.415675	0.139785	-0.0438678	-0.144948	-0.215239	-0.200689	0.677917	2.1679	0.0785474	-0.315511	0.0303806	1.01115	2.12172
1.17	0.139581	-0.110053	0.00660971	1.37073	0.913362	-0.236248	0.211449	0.144012	-0.125791	0.249929	0.0890601	0.0393437	0.000796915	-0.360809	-0.151808	-0.235028	0.530103	0.206815	0.282239	0.000770541	-0.407169	0.155295	-0.0357563	-0.14332	-0.216507	-0.198397	0.68202	2.16765	0.0690053	-0.309321	0.0294257	0.99837	2.1236
1.18	0.132269	-0.123645	0.00412264	1.38372	0.913663	-0.234716	0.212765	0.158759	-0.129769	0.266453	0.101438	0.0401684	0.000800801	-0.325096	-0.181884	-0.246889	0.601691	0.158727	0.277157	0.000774599	-0.397994	0.169905	-0.0271567	-0.140488	-0.217844	-0.195093	0.686783	2.16704	0.0598447	-0.303398	0.0283948	0.985421	2.12601
1.19	0.123616	-0.136279	0.000819542	1.39643	0.913939	-0.233129	0.214785	0.173004	-0.131677	0.281268	0.115307	0.0397993	0.000804687	-0.284456	-0.211209	-0.255423	0.675896	0.107363	0.264345	0.000778656	-0.388187	0.183163	-0.0181664	-0.136308	-0.219226	-0.190736	0.692109	2.16597	0.0511981	-0.297869	0.0273678	0.972471	2.12881
1.2	0.113903	-0.147623	-0.00311291	1.40885	0.914191	-0.231521	0.217062	0.1864	-0.131425	0.293953	0.129753	0.0383937	0.000808573	-0.239544	-0.238979	-0.260561	0.751308	0.0550536	0.244046	0.000782712	-0.378017	0.194763	-0.00899816	-0.130715	-0.220639	-0.185291	0.697885	2.16434	0.0431797	-0.292855	0.0265133	0.959647	2.13184
1.21	0.103687	-0.157473	-0.00730167	1.42098	0.914448	-0.229938	0.218818	0.198666	-0.129221	0.304091	0.144043	0.036248	0.000812459	-0.191448	-0.264546	-0.262245	0.826339	0.00448228	0.217007	0.000786769	-0.367944	0.204559	5.46951e-05	-0.123714	-0.22207	-0.17873	0.703978	2.16213	0.0358833	-0.288468	0.0260625	0.947041	2.13488
1.22	0.0936654	-0.165754	-0.0112746	1.43284	0.914748	-0.228423	0.219128	0.209616	-0.125457	0.311335	0.15765	0.0337045	0.000816345	-0.141459	-0.287445	-0.260455	0.899431	-0.0415338	0.184374	0.000790826	-0.358515	0.21254	0.00867124	-0.115355	-0.223511	-0.171017	0.710239	2.15935	0.0293806	-0.284806	0.0262686	0.934718	2.13775
